<svg width="14" height="14" viewBox="0 0 14 14" fill="none" xmlns="http://www.w3.org/2000/svg">
<g clip-path="url(#clip0_7028_45407)">
<path fill-rule="evenodd" clip-rule="evenodd" d="M8.74999 1.1665C9.07216 1.1665 9.33332 1.42767 9.33332 1.74984L9.33303 2.33288L12.4594 2.33317C12.5894 2.33317 12.6366 2.34671 12.6841 2.37213C12.7316 2.39755 12.7689 2.43485 12.7944 2.48238C12.8198 2.52991 12.8333 2.57706 12.8333 2.70707V3.12594C12.8333 3.25595 12.8198 3.3031 12.7944 3.35063C12.7689 3.39816 12.7316 3.43546 12.6841 3.46088C12.6366 3.4863 12.5894 3.49984 12.4594 3.49984L11.6664 3.49955L11.6667 12.2498C11.6667 12.572 11.4055 12.8332 11.0833 12.8332H2.91666C2.59449 12.8332 2.33332 12.572 2.33332 12.2498L2.33303 3.49955L1.54056 3.49984C1.41054 3.49984 1.3634 3.4863 1.31587 3.46088C1.26834 3.43546 1.23103 3.39816 1.20561 3.35063C1.18019 3.3031 1.16666 3.25595 1.16666 3.12594V2.70707C1.16666 2.57706 1.18019 2.52991 1.20561 2.48238C1.23103 2.43485 1.26834 2.39755 1.31587 2.37213C1.3634 2.34671 1.41054 2.33317 1.54056 2.33317L4.66637 2.33288L4.66666 1.74984C4.66666 1.42767 4.92782 1.1665 5.24999 1.1665H8.74999ZM10.4997 3.49972H3.49971L3.5 11.6667H10.5L10.4997 3.49972ZM6.125 5.25C6.28608 5.25 6.41667 5.38058 6.41667 5.54167V9.625C6.41667 9.78609 6.28608 9.91667 6.125 9.91667H5.54167C5.38058 9.91667 5.25 9.78609 5.25 9.625V5.54167C5.25 5.38058 5.38058 5.25 5.54167 5.25H6.125ZM8.45833 5.25C8.61942 5.25 8.75 5.38058 8.75 5.54167V9.625C8.75 9.78609 8.61942 9.91667 8.45833 9.91667H7.875C7.71392 9.91667 7.58333 9.78609 7.58333 9.625V5.54167C7.58333 5.38058 7.71392 5.25 7.875 5.25H8.45833Z" fill="#4E5969"/>
</g>
<defs>
<clipPath id="clip0_7028_45407">
<rect width="14" height="14" fill="white"/>
</clipPath>
</defs>
</svg>
