<svg width="24" height="24" viewBox="0 0 24 24" fill="none" xmlns="http://www.w3.org/2000/svg">
<path fill-rule="evenodd" clip-rule="evenodd" d="M3.5 12C3.5 7.30558 7.30558 3.5 12 3.5C16.6944 3.5 20.5 7.30558 20.5 12C20.5 16.6944 16.6944 20.5 12 20.5C7.30558 20.5 3.5 16.6944 3.5 12ZM12 2C6.47715 2 2 6.47715 2 12C2 17.5228 6.47715 22 12 22C17.5228 22 22 17.5228 22 12C22 6.47715 17.5228 2 12 2ZM9.18436 14.6245C8.97695 14.2659 8.51816 14.1434 8.15961 14.3508C7.80107 14.5582 7.67854 15.017 7.88595 15.3755C8.70612 16.7934 10.2409 17.75 12 17.75C13.7591 17.75 15.2939 16.7934 16.1141 15.3755C16.3215 15.017 16.199 14.5582 15.8404 14.3508C15.4819 14.1434 15.0231 14.2659 14.8157 14.6245C14.2526 15.5978 13.202 16.25 12 16.25C10.798 16.25 9.74743 15.5978 9.18436 14.6245ZM9 8C9.55228 8 10 8.44772 10 9V11C10 11.5523 9.55228 12 9 12C8.44772 12 8 11.5523 8 11V9C8 8.44772 8.44772 8 9 8ZM16 9C16 8.44772 15.5523 8 15 8C14.4477 8 14 8.44772 14 9V11C14 11.5523 14.4477 12 15 12C15.5523 12 16 11.5523 16 11V9Z" fill="#73767A"/>
</svg>
