<svg width="20" height="20" viewBox="0 0 20 20" fill="none" xmlns="http://www.w3.org/2000/svg">
<path fill-rule="evenodd" clip-rule="evenodd" d="M1.517 6.25072C0.877504 6.72193 0.5 7.46901 0.5 8.26336V17.5001C0.5 18.8808 1.61929 20.0001 3 20.0001H17C18.3807 20.0001 19.5 18.8808 19.5 17.5001V8.26336C19.5 7.46901 19.1225 6.72193 18.483 6.25072L11.483 1.09283C10.6011 0.443015 9.39889 0.443016 8.517 1.09283L1.517 6.25072ZM5.75 9.5C5.33579 9.5 5 9.83579 5 10.25V14.75C5 15.1642 5.33579 15.5 5.75 15.5C6.16421 15.5 6.5 15.1642 6.5 14.75V10.25C6.5 9.83579 6.16421 9.5 5.75 9.5Z" fill="white"/>
</svg>
