<svg width="20" height="20" viewBox="0 0 20 20" fill="none" xmlns="http://www.w3.org/2000/svg">
<path fill-rule="evenodd" clip-rule="evenodd" d="M18 17.5006V8.26385C18 7.94611 17.849 7.64728 17.5932 7.4588L10.5932 2.3009C10.2404 2.04098 9.75956 2.04098 9.4068 2.3009L2.4068 7.4588C2.151 7.64728 2 7.94611 2 8.26385V17.5006C2 18.0529 2.44772 18.5006 3 18.5006H17C17.5523 18.5006 18 18.0529 18 17.5006ZM1.517 6.25121C0.877504 6.72242 0.5 7.4695 0.5 8.26385V17.5006C0.5 18.8813 1.61929 20.0006 3 20.0006H17C18.3807 20.0006 19.5 18.8813 19.5 17.5006V8.26385C19.5 7.4695 19.1225 6.72242 18.483 6.25121L11.483 1.09332C10.6011 0.443503 9.39889 0.443504 8.517 1.09332L1.517 6.25121Z" fill="#B5B5B6"/>
</svg>
