<svg width="14" height="14" viewBox="0 0 14 14" fill="none" xmlns="http://www.w3.org/2000/svg">
<circle cx="7" cy="7" r="5.75" stroke="#161823" stroke-linecap="round"/>
<path fill-rule="evenodd" clip-rule="evenodd" d="M8.99414 5.71295C9.18943 5.51771 9.18948 5.20113 8.99424 5.00584C8.79901 4.81055 8.48243 4.81051 8.28714 5.00574L6.99973 6.29279L5.71294 5.00582C5.51769 4.81054 5.20111 4.81052 5.00583 5.00577C4.81055 5.20101 4.81053 5.5176 5.00578 5.71287L6.29252 6.9998L5.00497 8.28699C4.80968 8.48223 4.80964 8.79881 5.00487 8.9941C5.20011 9.18939 5.51669 9.18943 5.71198 8.9942L6.99958 7.70695L8.28657 8.99412C8.48182 9.1894 8.7984 9.18942 8.99368 8.99417C9.18896 8.79892 9.18898 8.48234 8.99373 8.28706L7.70679 6.99994L8.99414 5.71295Z" fill="#161823"/>
</svg>
