<svg width="28" height="28" viewBox="0 0 28 28" fill="none" xmlns="http://www.w3.org/2000/svg">
<g filter="url(#filter0_d_11557_1224)">
<path d="M13.4831 6.28322C13.6903 6.49835 13.9828 6.6096 14.2806 6.58653C14.5784 6.56345 14.8503 6.40847 15.0219 6.16398C15.9061 4.90411 17.3804 4.19995 19.0847 4.19995C22.2723 4.19995 25 6.99133 25 10.3687C25 10.4676 24.9984 10.5401 24.997 10.6015C24.9967 10.6137 24.9964 10.6254 24.9962 10.6368L24.9962 10.6375C24.9956 10.6658 24.9946 10.7141 24.9959 10.7601C24.9962 10.7732 24.9969 10.7928 24.9986 10.8166C24.9816 11.4359 24.8797 11.9739 24.6789 12.711C24.6002 12.83 24.5374 12.9489 24.4881 13.0493C24.4173 13.1936 24.3518 13.348 24.2925 13.495C24.1027 13.7961 23.9982 14.0012 23.8775 14.3094C22.5683 16.4775 20.4126 18.7207 18.483 20.5014C17.5162 21.3937 16.6223 22.1552 15.9473 22.7161C15.6483 22.9646 15.3932 23.1729 15.1916 23.3375C15.1655 23.3588 15.1403 23.3794 15.116 23.3993L15.0805 23.4282C14.9114 23.5662 14.7355 23.7099 14.6524 23.793C14.4694 23.976 14.3828 24.0559 14.2927 24.1099C14.2324 24.1461 14.1548 24.1798 14 24.1798C13.8452 24.1798 13.7676 24.1461 13.7073 24.1099C13.6172 24.0559 13.5306 23.976 13.3476 23.793C13.26 23.7054 13.068 23.5537 12.8881 23.4116C12.8697 23.3971 12.8515 23.3827 12.8335 23.3685L12.8012 23.343C12.57 23.1601 12.2667 22.9202 11.9082 22.6297C11.1572 22.0212 10.1679 21.1937 9.12098 20.2267C6.99827 18.266 4.74712 15.8291 3.69145 13.5439C3.68713 13.5346 3.68267 13.5253 3.67806 13.5161C3.55633 13.2726 3.38627 12.7801 3.24169 12.2037C3.10732 11.668 3.01958 11.1575 3.00237 10.8161C3.00379 10.796 3.00438 10.7803 3.0047 10.7708C3.0064 10.7209 3.00513 10.6685 3.00446 10.6409L3.00441 10.6384C3.00412 10.6268 3.00382 10.6149 3.0035 10.6026C3.00188 10.5398 3 10.4668 3 10.3687C3 6.98953 5.72591 4.19995 8.91525 4.19995C10.589 4.19995 12.1413 4.89004 13.4831 6.28322Z" stroke="white" stroke-width="2" stroke-linejoin="round"/>
</g>
<defs>
<filter id="filter0_d_11557_1224" x="-1.41583" y="0.922729" width="30.8317" height="28.8116" filterUnits="userSpaceOnUse" color-interpolation-filters="sRGB">
<feFlood flood-opacity="0" result="BackgroundImageFix"/>
<feColorMatrix in="SourceAlpha" type="matrix" values="0 0 0 0 0 0 0 0 0 0 0 0 0 0 0 0 0 0 127 0" result="hardAlpha"/>
<feOffset dy="1.13861"/>
<feGaussianBlur stdDeviation="1.70792"/>
<feColorMatrix type="matrix" values="0 0 0 0 0 0 0 0 0 0 0 0 0 0 0 0 0 0 0.15 0"/>
<feBlend mode="normal" in2="BackgroundImageFix" result="effect1_dropShadow_11557_1224"/>
<feBlend mode="normal" in="SourceGraphic" in2="effect1_dropShadow_11557_1224" result="shape"/>
</filter>
</defs>
</svg>
