<svg width="18" height="18" viewBox="0 0 18 18" fill="none" xmlns="http://www.w3.org/2000/svg">
<rect width="18" height="18" rx="2.25" fill="url(#paint0_linear_9637_45741)"/>
<path fill-rule="evenodd" clip-rule="evenodd" d="M6.59955 4.2H11.3996C12.1661 4.2 12.6688 4.20093 13.0533 4.23235C13.4238 4.26261 13.5776 4.31509 13.6654 4.35986C13.9414 4.50047 14.1657 4.72484 14.3064 5.00081C14.3511 5.08867 14.4036 5.24246 14.4339 5.61292C14.4653 5.9974 14.4662 6.50013 14.4662 7.26667V10.7333C14.4662 11.4999 14.4653 12.0026 14.4339 12.3871C14.4036 12.7575 14.3511 12.9113 14.3064 12.9992C14.1657 13.2752 13.9414 13.4995 13.6654 13.6401C13.5776 13.6849 13.4238 13.7374 13.0533 13.7677C12.6688 13.7991 12.1661 13.8 11.3996 13.8H6.59955C5.83301 13.8 5.33028 13.7991 4.94581 13.7677C4.57535 13.7374 4.42155 13.6849 4.3337 13.6401C4.05773 13.4995 3.83336 13.2752 3.69274 12.9992C3.64798 12.9113 3.5955 12.7575 3.56523 12.3871C3.53382 12.0026 3.53289 11.4999 3.53289 10.7333V7.26667C3.53289 6.50013 3.53382 5.9974 3.56523 5.61292C3.5955 5.24246 3.64798 5.08867 3.69274 5.00081C3.83336 4.72484 4.05773 4.50047 4.3337 4.35986C4.42155 4.31509 4.57535 4.26261 4.94581 4.23235C5.33028 4.20093 5.83301 4.2 6.59955 4.2ZM2.33289 7.26667C2.33289 5.77319 2.33289 5.02646 2.62354 4.45603C2.8792 3.95426 3.28715 3.54631 3.78891 3.29065C4.35934 3 5.10608 3 6.59955 3H11.3996C12.893 3 13.6398 3 14.2102 3.29065C14.712 3.54631 15.1199 3.95426 15.3756 4.45603C15.6662 5.02646 15.6662 5.77319 15.6662 7.26667V10.7333C15.6662 12.2268 15.6662 12.9735 15.3756 13.544C15.1199 14.0457 14.712 14.4537 14.2102 14.7094C13.6398 15 12.893 15 11.3996 15H6.59955C5.10608 15 4.35934 15 3.78891 14.7094C3.28715 14.4537 2.8792 14.0457 2.62354 13.544C2.33289 12.9735 2.33289 12.2268 2.33289 10.7333V7.26667ZM8.17796 7.98287L10.1281 9.11081L8.17796 10.2388V7.98287ZM11.6102 8.58182C12.0171 8.81714 12.0171 9.40449 11.6102 9.63981L7.89505 11.7887C7.48764 12.0243 6.97796 11.7303 6.97796 11.2597V6.96196C6.97796 6.49131 7.48764 6.19732 7.89505 6.43296L11.6102 8.58182Z" fill="white"/>
<defs>
<linearGradient id="paint0_linear_9637_45741" x1="0" y1="9" x2="18" y2="9" gradientUnits="userSpaceOnUse">
<stop stop-color="#FF1764"/>
<stop offset="1" stop-color="#ED3596"/>
</linearGradient>
</defs>
</svg>
