<svg width="24" height="24" viewBox="0 0 24 24" fill="none" xmlns="http://www.w3.org/2000/svg">
<path fill-rule="evenodd" clip-rule="evenodd" d="M6 5.99992C6.39052 5.6094 7.02369 5.6094 7.41421 5.99992L12 10.5857L16.5858 6C16.9763 5.60948 17.6095 5.60948 18 6C18.3905 6.39052 18.3905 7.02369 18 7.41421L13.4142 11.9999L18 16.5857C18.3905 16.9762 18.3905 17.6094 18 17.9999C17.6095 18.3904 16.9763 18.3904 16.5858 17.9999L12 13.4141L7.41421 17.9999C7.02369 18.3904 6.39052 18.3904 6 17.9999C5.60948 17.6094 5.60948 16.9762 6 16.5857L10.5858 11.9999L6 7.41414C5.60947 7.02361 5.60947 6.39045 6 5.99992Z" fill="#0C0D0F"/>
</svg>
