<svg width="12" height="12" viewBox="0 0 12 12" fill="none" xmlns="http://www.w3.org/2000/svg">
<path d="M5.55181 0.543964C5.55181 0.829279 5.24474 1.95688 4.54308 2.63046C3.84142 3.30404 2.70024 4.12861 2.13991 5.32692C1.57958 6.52523 1.54088 8.46324 2.5727 9.75445C3.60452 11.0457 4.49447 11.5 6.28476 11.5C8.07506 11.5 9.48776 10.1945 9.95918 8.81287C10.4306 7.43128 10.2532 6.1526 9.95918 5.32692C9.66516 4.50124 9.69151 3.9739 9.57362 3.78322C9.45573 3.59254 9.08119 4.37022 8.53272 4.8655C7.98425 5.36079 7.36689 5.78562 7.49207 5.55627C7.61725 5.32692 8.18222 4.05163 7.38772 2.7285C6.59323 1.40537 5.55181 0.25865 5.55181 0.543964Z" stroke="#737A87"/>
</svg>
