<svg width="8" height="10" viewBox="0 0 8 10" fill="none" xmlns="http://www.w3.org/2000/svg">
<path fill-rule="evenodd" clip-rule="evenodd" d="M6.0999 2.1C6.0999 0.940202 5.1597 0 3.9999 0C2.8401 0 1.8999 0.940202 1.8999 2.1V4.29944H1.25C0.697715 4.29944 0.25 4.74715 0.25 5.29944V8.09944C0.25 8.65172 0.697715 9.09944 1.25 9.09944H6.75C7.30228 9.09944 7.75 8.65172 7.75 8.09944V5.29944C7.75 4.74715 7.30228 4.29944 6.75 4.29944H6.0999V2.1ZM4.8999 4.29944V2.1C4.8999 1.60294 4.49696 1.2 3.9999 1.2C3.50285 1.2 3.0999 1.60294 3.0999 2.1V4.29944H4.8999Z" fill="#703A17"/>
</svg>
