<svg width="20" height="20" viewBox="0 0 20 20" fill="none" xmlns="http://www.w3.org/2000/svg">
<path d="M2.49609 4.63C2.49609 4.21579 2.77592 3.88 3.12109 3.88H16.8776C17.2228 3.88 17.5026 4.21579 17.5026 4.63C17.5026 5.04422 17.2228 5.38 16.8776 5.38H3.12109C2.77592 5.38 2.49609 5.04422 2.49609 4.63Z" fill="#BABABA"/>
<path d="M2.49609 10.125C2.49609 9.71079 2.77592 9.375 3.12109 9.375H16.8776C17.2228 9.375 17.5026 9.71079 17.5026 10.125C17.5026 10.5392 17.2228 10.875 16.8776 10.875H3.12109C2.77592 10.875 2.49609 10.5392 2.49609 10.125Z" fill="#BABABA"/>
<path d="M3.05392 14.8789C2.748 14.8789 2.5 15.2147 2.5 15.6289C2.5 16.0431 2.748 16.3789 3.05392 16.3789L10.2568 16.3789C10.5627 16.3789 10.8107 16.0431 10.8107 15.6289C10.8107 15.2147 10.5627 14.8789 10.2568 14.8789L3.05392 14.8789Z" fill="#BABABA"/>
<path d="M15.0726 13.2887C14.8152 13.1342 14.4946 13.1302 14.2333 13.2781C13.972 13.426 13.8105 13.703 13.8105 14.0033V17.0033C13.8105 17.3035 13.972 17.5805 14.2333 17.7284C14.4946 17.8763 14.8152 17.8723 15.0726 17.7178L17.5726 16.2178C17.8236 16.0672 17.9772 15.796 17.9772 15.5033C17.9772 15.2105 17.8236 14.9393 17.5726 14.7887L15.0726 13.2887Z" fill="#BABABA"/>
</svg>
