<svg width="12" height="12" viewBox="0 0 12 12" fill="none" xmlns="http://www.w3.org/2000/svg">
<path fill-rule="evenodd" clip-rule="evenodd" d="M2.5 0C2.22386 0 2 0.223858 2 0.5C2 0.776142 2.22386 1 2.5 1H9.5C9.77614 1 10 0.776142 10 0.5C10 0.223858 9.77614 0 9.5 0H2.5ZM1 2.5C1 2.22386 1.22386 2 1.5 2H10.5C10.7761 2 11 2.22386 11 2.5C11 2.77614 10.7761 3 10.5 3H1.5C1.22386 3 1 2.77614 1 2.5ZM1 4C0.447715 4 0 4.44772 0 5V11C0 11.5523 0.447715 12 1 12H11C11.5523 12 12 11.5523 12 11V5C12 4.44772 11.5523 4 11 4H1ZM8.09258 7.84747C8.04302 7.73616 7.89535 7.6509 7.6 7.48038L5.65 6.35455C5.35465 6.18403 5.20698 6.09877 5.0858 6.11151C4.98011 6.12262 4.88409 6.17805 4.82162 6.26404C4.75 6.36261 4.75 6.53313 4.75 6.87417V9.12583C4.75 9.46687 4.75 9.63739 4.82162 9.73596C4.88409 9.82195 4.98011 9.87738 5.0858 9.88849C5.20698 9.90123 5.35465 9.81597 5.65 9.64545L7.6 8.51962C7.89535 8.3491 8.04302 8.26384 8.09258 8.15253C8.13581 8.05544 8.13581 7.94456 8.09258 7.84747Z" fill="white"/>
</svg>
