<svg width="18" height="18" viewBox="0 0 18 18" fill="none" xmlns="http://www.w3.org/2000/svg">
<g opacity="0.9">
<path fill-rule="evenodd" clip-rule="evenodd" d="M2.2118 5.71489C1.63513 6.06581 1.25 6.70026 1.25 7.42466V11.4247C1.25 12.5292 2.14543 13.4247 3.25 13.4247H4.54844C5.00258 13.4247 5.4432 13.5792 5.79783 13.8629L8.62531 16.1249C8.80262 16.2668 9.02293 16.344 9.25 16.344C9.80229 16.344 10.25 15.8963 10.25 15.344V13.7531L9.25 12.7531V15.344L6.42252 13.0821C5.89058 12.6565 5.22965 12.4247 4.54844 12.4247H3.25C2.69772 12.4247 2.25 11.9769 2.25 11.4247V7.42466C2.25 6.97202 2.55073 6.58963 2.96328 6.46637L2.2118 5.71489ZM15.6402 13.4865C16.3792 12.3135 16.75 10.9559 16.75 9.42466C16.75 7.29418 16.0323 5.4998 14.6036 4.07111C14.4083 3.87585 14.0917 3.87585 13.8964 4.07111C13.7012 4.26637 13.7012 4.58295 13.8964 4.77821C15.1344 6.01618 15.75 7.55514 15.75 9.42466C15.75 10.6825 15.4713 11.7907 14.912 12.7582L15.6402 13.4865ZM13.4125 11.2588C13.6369 10.651 13.75 10.0393 13.75 9.42466C13.75 8.32071 13.385 7.22583 12.666 6.14731C12.5128 5.91755 12.2024 5.85546 11.9726 6.00864C11.7429 6.16181 11.6808 6.47225 11.834 6.70201C12.4483 7.62349 12.75 8.52861 12.75 9.42466C12.75 9.76896 12.7055 10.1146 12.6158 10.462L13.4125 11.2588ZM10.25 8.09623V3.50529C10.25 3.27821 10.1727 3.0579 10.0309 2.88059C9.68586 2.44933 9.05657 2.37941 8.62531 2.72442L6.54357 4.3898L7.25503 5.10126L9.25 3.50529V7.09623L10.25 8.09623Z" fill="white"/>
<rect x="1.32544" y="2.70715" width="1" height="20" rx="0.5" transform="rotate(-45 1.32544 2.70715)" fill="white"/>
</g>
</svg>
