<svg width="22" height="18" viewBox="0 0 22 18" fill="none" xmlns="http://www.w3.org/2000/svg">
<path fill-rule="evenodd" clip-rule="evenodd" d="M1.925 0C0.861852 0 0 0.881439 0 1.96875V16.0312C0 17.1186 0.861853 18 1.925 18H20.075C21.1381 18 22 17.1186 22 16.0312V1.96875C22 0.881439 21.1381 0 20.075 0H1.925ZM1.65 1.96875C1.65 1.81342 1.77312 1.6875 1.925 1.6875H20.075C20.2269 1.6875 20.35 1.81342 20.35 1.96875V16.0312C20.35 16.1866 20.2269 16.3125 20.075 16.3125H1.925C1.77312 16.3125 1.65 16.1866 1.65 16.0312V1.96875ZM9.51554 4.91162C9.26139 4.74745 8.94003 4.73766 8.67677 4.88606C8.4135 5.03446 8.25 5.31756 8.25 5.625V12.375C8.25 12.6824 8.4135 12.9655 8.67677 13.1139C8.94003 13.2623 9.26139 13.2526 9.51554 13.0884L14.7405 9.71338C14.9799 9.55879 15.125 9.2895 15.125 9C15.125 8.7105 14.9799 8.44121 14.7405 8.28662L9.51554 4.91162ZM12.755 9L9.9 10.8442V7.15584L12.755 9Z" fill="#B5B5B6"/>
</svg>
